<svg xmlns="http://www.w3.org/2000/svg" viewBox="0 0 233.3 207.9"><defs><style>.cls-1{isolation:isolate;}.cls-2{fill:#822805;}.cls-3{fill:#852905;}.cls-4{fill:#b63807;}.cls-5{fill:#df4509;}.cls-6{fill:#882a05;}</style></defs><title>Asset 3</title><g id="Layer_2" data-name="Layer 2"><g id="Layer_1-2" data-name="Layer 1"><g class="cls-1"><polygon class="cls-2" points="203.08 182.88 178.01 169.25 162.85 88.78 187.93 102.42 203.08 182.88"/><polygon class="cls-3" points="203.6 96.76 178.53 83.13 178.68 4.15 203.75 17.79 203.6 96.76"/><polygon class="cls-4" points="203.75 17.79 178.68 4.15 208.22 0 233.3 13.64 203.75 17.79"/><polygon class="cls-4" points="158.18 24.2 133.1 10.56 164.61 6.13 189.68 19.77 158.18 24.2"/><polygon class="cls-3" points="157.87 189.24 132.8 175.6 133.1 10.56 158.18 24.2 157.87 189.24"/><polygon class="cls-5" points="233.3 13.64 232.99 178.68 203.08 182.88 187.93 102.42 187.77 185.04 157.87 189.24 158.18 24.2 189.68 19.77 203.6 96.76 203.75 17.79 233.3 13.64"/></g><g class="cls-1"><polygon class="cls-3" points="116.39 195.07 91.32 181.43 91.54 62.5 116.61 76.14 116.39 195.07"/><polygon class="cls-6" points="84.65 135.19 59.58 121.55 72.58 19.06 97.66 32.7 84.65 135.19"/><polygon class="cls-4" points="97.66 32.7 72.58 19.06 119.57 12.46 144.65 26.1 97.66 32.7"/><polygon class="cls-2" points="71.36 201.4 46.28 187.76 27.82 71.45 52.89 85.09 71.36 201.4"/><polygon class="cls-4" points="25.38 42.86 0.31 29.22 46.95 22.67 72.02 36.3 25.38 42.86"/><polygon class="cls-3" points="25.07 207.9 0 194.26 0.31 29.22 25.38 42.86 25.07 207.9"/><polygon class="cls-5" points="144.65 26.1 144.34 191.14 116.39 195.07 116.61 76.14 98.77 197.54 71.36 201.4 52.89 85.09 52.67 204.02 25.07 207.9 25.38 42.86 72.02 36.3 84.65 135.19 97.66 32.7 144.65 26.1"/></g></g></g></svg>